<svg id="Layer_1" data-name="Layer 1" xmlns="http://www.w3.org/2000/svg" viewBox="0 0 210 35.99"><defs><style>.cls-1{fill:#00a7de;}.cls-2{fill:#1b83e2;}.cls-3{fill:#233645;}.cls-4{fill:#1981e1;}.cls-5{fill:#98e0f3;}.cls-6{fill:#00b1e2;}</style></defs><path class="cls-1" d="M14.7,0h24V24h-12v12H3V12H14.7Z" transform="translate(-3)"/><path class="cls-2" d="M3,12H15V24h11.7v12H3Z" transform="translate(-3)"/><path class="cls-3" d="M135.56,14.48a5.42,5.42,0,0,1,1.13,1.4l.28-2.23h6.41V35.09H137l-.28-1.94-.43.4-.59.54-.58.52c-1.72,1.33-3.93,1.42-6,1.27a10.06,10.06,0,0,1-6.37-4.22A14.17,14.17,0,0,1,121,21.27a11.41,11.41,0,0,1,5.11-7.13A9.15,9.15,0,0,1,135.56,14.48Zm-6.87,5.8a7.94,7.94,0,0,0-1.19,5.9,5.94,5.94,0,0,0,3.14,4,5.88,5.88,0,0,0,4.19-.54A6.61,6.61,0,0,0,137,24.58a7.09,7.09,0,0,0-2-5.08A4.61,4.61,0,0,0,128.69,20.28Z" transform="translate(-3)"/><path class="cls-3" d="M187.49,15a11.29,11.29,0,0,1,4.35,7.59c.23,3.66-.25,6.77-2.5,9.75A11.3,11.3,0,0,1,181.4,36a12.64,12.64,0,0,1-9.19-3.21,11.9,11.9,0,0,1-2.93-8.26c.2-3.41,1-6.15,3.32-8.68A12.52,12.52,0,0,1,187.49,15Zm-10.18,5.1a8.51,8.51,0,0,0-1.06,6.67,5.88,5.88,0,0,0,1.88,2.91,5.18,5.18,0,0,0,4.16.41A6.37,6.37,0,0,0,185,27.12c.43-2.13.57-4.61-.65-6.51a5.13,5.13,0,0,0-3.7-2A4.76,4.76,0,0,0,177.31,20.07Z" transform="translate(-3)"/><path class="cls-3" d="M163.89,14.66a8.9,8.9,0,0,1,3.28,6c0,.94,0,1.86,0,2.79v1c0,1.06,0,2.12,0,3.17,0,.73,0,1.45,0,2.17,0,1.76,0,3.52-.07,5.28h-6.4l0-2.8c0-.9,0-1.8,0-2.7l0-1.87c0-.89,0-1.79,0-2.69v-.84a6.4,6.4,0,0,0-1-3.86,4.44,4.44,0,0,0-3.59-1.47,3.94,3.94,0,0,0-2.26,1.19,7.56,7.56,0,0,0-1.17,4v.74l0,.8v.82L152.41,29l0,1.75-.09,4.3h-6.4V13.65h6.4l.28,1.95.35-.34C156.1,12.34,160.23,12.41,163.89,14.66Z" transform="translate(-3)"/><path class="cls-3" d="M77.3,14.64a8.82,8.82,0,0,1,3.41,6c.07,1.13.07,2.26.05,3.39v1c0,1,0,2,0,3v2.07l0,5H74.3l0-2.66c0-.86,0-1.71,0-2.57,0-.59,0-1.18,0-1.78,0-.85,0-1.71,0-2.56v-.8a10,10,0,0,0-1-4.39,4.29,4.29,0,0,0-3.61-1.45A3.66,3.66,0,0,0,67,20.47c-1.48,2.85-1.18,6.39-1.24,9.52l0,1.49c0,1.21,0,2.41-.07,3.61H59.54V13.65h6.13L66,15.88l.34-.4C69.28,12.2,73.66,12.49,77.3,14.64Z" transform="translate(-3)"/><path class="cls-3" d="M86.84,6.68h6.4v7h7v5.57h-7l.09,3.48,0,1.18c0,.57,0,1.14,0,1.7l0,1a8.6,8.6,0,0,0,.65,2.63,6,6,0,0,0,3.06.27c.77-.28,1-.38,1.4-1.11a4.13,4.13,0,0,1,2.12,1.76l.67.81a3.71,3.71,0,0,1,.83,1.89,9.91,9.91,0,0,1-7.48,2.58,9,9,0,0,1-5.93-2.88c-2.11-2.68-2.06-5.7-2-8.95,0-.43,0-.85,0-1.28,0-1,0-2.08.06-3.12H81.55V13.65h5.29Z" transform="translate(-3)"/><path class="cls-3" d="M197.69,6.68h6.41v7h7v5.57h-7q0,1.89.09,3.78l0,1.07a9.14,9.14,0,0,0,1,4.9,3.79,3.79,0,0,0,3.07.55A8.36,8.36,0,0,0,210,28.41c.4.45.81.89,1.22,1.34l.68.75C213,31.84,213,31.84,213,32.57a5.16,5.16,0,0,1-2.89,2.32,10.53,10.53,0,0,1-7.84-.28,8.12,8.12,0,0,1-4-4.53,23.49,23.49,0,0,1-.59-7c0-.37,0-.75,0-1.13,0-.91,0-1.82,0-2.73H192.4V13.65h5.29Z" transform="translate(-3)"/><path class="cls-3" d="M120.54,13.65a20.54,20.54,0,0,1-1,4.59l-.2.62-.48,1.47-.51-.2a6.2,6.2,0,0,0-5.06-.08,6.67,6.67,0,0,0-2.23,3.07c0,.4,0,.79-.06,1.19V25l0,.78,0,.8c0,.85,0,1.69,0,2.54l0,1.72-.09,4.21h-6.4V13.65h6.4l.28,2.23.43-.63C113.79,12.67,117.44,12.52,120.54,13.65Z" transform="translate(-3)"/><path class="cls-4" d="M26.68,0h12V12h-12Z" transform="translate(-3)"/><path class="cls-5" d="M15,24h11.7v12H15Z" transform="translate(-3)"/><path class="cls-6" d="M26.68,12.26h12V24h-12Z" transform="translate(-3)"/><path class="cls-5" d="M3,12H14.7V24H3Z" transform="translate(-3)"/><path class="cls-3" d="M50.63,13.93h6.13V35.09H50.63V19.78h-2a17.63,17.63,0,0,1,1-3.71L50,15C50.35,14.21,50.35,14.21,50.63,13.93Z" transform="translate(-3)"/><path class="cls-3" d="M56.18,4.4a4,4,0,0,1,1.21,3.41,4.43,4.43,0,0,1-1.75,2.77,4.77,4.77,0,0,1-4-.17,4.42,4.42,0,0,1-1.59-2.33,5.45,5.45,0,0,1,.77-3.33A4.2,4.2,0,0,1,56.18,4.4Z" transform="translate(-3)"/></svg>