<?xml version="1.0" encoding="UTF-8"?>
<svg version="1.1" xmlns="http://www.w3.org/2000/svg" width="136" height="133">
<path d="M0 0 C28.38 0 56.76 0 86 0 C86 28.38 86 56.76 86 86 C71.81 86 57.62 86 43 86 C43 100.19 43 114.38 43 129 C14.95 129 -13.1 129 -42 129 C-42 100.62 -42 72.24 -42 43 C-28.14 43 -14.28 43 0 43 C0 28.81 0 14.62 0 0 Z " fill="#00A7DE" transform="translate(45,3)"/>
<path d="M0 0 C14.19 0 28.38 0 43 0 C43 14.19 43 28.38 43 43 C56.86 43 70.72 43 85 43 C85 57.19 85 71.38 85 86 C56.95 86 28.9 86 0 86 C0 57.62 0 29.24 0 0 Z " fill="#1B83E2" transform="translate(3,46)"/>
<path d="M0 0 C14.19 0 28.38 0 43 0 C43 14.19 43 28.38 43 43 C28.81 43 14.62 43 0 43 C0 28.81 0 14.62 0 0 Z " fill="#1981E1" transform="translate(88,3)"/>
<path d="M0 0 C13.86 0 27.72 0 42 0 C42 14.19 42 28.38 42 43 C28.14 43 14.28 43 0 43 C0 28.81 0 14.62 0 0 Z " fill="#98E0F3" transform="translate(46,89)"/>
<path d="M0 0 C14.19 0 28.38 0 43 0 C43 13.86 43 27.72 43 42 C28.81 42 14.62 42 0 42 C0 28.14 0 14.28 0 0 Z " fill="#00B1E2" transform="translate(88,47)"/>
<path d="M0 0 C13.86 0 27.72 0 42 0 C42 14.19 42 28.38 42 43 C28.14 43 14.28 43 0 43 C0 28.81 0 14.62 0 0 Z " fill="#98E0F3" transform="translate(3,46)"/>
</svg>
