<?xml version="1.0" encoding="UTF-8"?>
<svg version="1.1" xmlns="http://www.w3.org/2000/svg" width="753" height="133">
<path d="M0 0 C28.38 0 56.76 0 86 0 C86 28.38 86 56.76 86 86 C71.81 86 57.62 86 43 86 C43 100.19 43 114.38 43 129 C14.95 129 -13.1 129 -42 129 C-42 100.62 -42 72.24 -42 43 C-28.14 43 -14.28 43 0 43 C0 28.81 0 14.62 0 0 Z " fill="#00A7DE" transform="translate(44,1)"/>
<path d="M0 0 C14.19 0 28.38 0 43 0 C43 14.19 43 28.38 43 43 C56.86 43 70.72 43 85 43 C85 57.19 85 71.38 85 86 C56.95 86 28.9 86 0 86 C0 57.62 0 29.24 0 0 Z " fill="#1B83E2" transform="translate(2,44)"/>
<path d="M0 0 C2.0625 2 2.0625 2 4.0625 5 C4.3925 2.36 4.7225 -0.28 5.0625 -3 C12.6525 -3 20.2425 -3 28.0625 -3 C28.0625 22.41 28.0625 47.82 28.0625 74 C20.4725 74 12.8825 74 5.0625 74 C4.5675 70.535 4.5675 70.535 4.0625 67 C3.54300781 67.48210937 3.02351563 67.96421875 2.48828125 68.4609375 C1.44220703 69.40839844 1.44220703 69.40839844 0.375 70.375 C-0.30949219 71.00148438 -0.99398437 71.62796875 -1.69921875 72.2734375 C-7.873333 77.03601778 -15.8098006 77.37097504 -23.3671875 76.82421875 C-33.13882683 75.10288015 -40.41394086 69.47170648 -46.24609375 61.66015625 C-53.35337851 50.48218645 -54.68242063 37.24309388 -52.25390625 24.37890625 C-49.15842494 13.47407791 -43.75479163 4.65457059 -33.890625 -1.21875 C-23.15530521 -6.86891831 -10.17362626 -6.92672426 0 0 Z M-24.6875 20.8125 C-29.37984359 27.45998675 -29.76481694 34.04345809 -28.9375 42 C-27.02611933 48.97395649 -23.91478024 52.67991986 -17.6875 56.3125 C-12.29055269 57.66173683 -7.57445927 56.80303662 -2.625 54.375 C3.09588355 49.31933547 4.81497484 43.71287739 5.3125 36.25 C5.20918151 29.41806469 3.01511333 22.8111101 -1.9375 18 C-10.01528807 12.67600332 -18.00222718 13.97528916 -24.6875 20.8125 Z " fill="#FEFEFE" transform="translate(477.9375,53)"/>
<path d="M0 0 C8.91408975 7.52243861 14.07051784 15.56205391 15.625 27.25 C16.44365045 40.39563699 14.70076891 51.56738018 6.625 62.25 C-1.26005153 70.77173271 -10.40911858 74.57965373 -21.8828125 75.4375 C-34.20446573 75.74650698 -45.65548646 72.38467484 -54.84765625 63.90625 C-62.41207271 55.70340453 -65.36111339 45.23430873 -65.375 34.25 C-64.66088246 22.0061301 -61.91474583 12.15735748 -53.453125 3.0703125 C-39.16848082 -9.44217657 -15.64190351 -11.00949362 0 0 Z M-36.5625 18.3125 C-41.25731047 25.92133075 -42.27414154 33.54776924 -40.375 42.25 C-38.91912133 46.73020394 -37.16160574 49.55278127 -33.625 52.6875 C-28.27265479 55.26074289 -24.4295071 55.84197662 -18.6875 54.1875 C-14.05994148 51.48081483 -11.45131929 48.40263859 -9.0625 43.625 C-7.50383561 35.97337484 -7.01245674 27.07502412 -11.375 20.25 C-15.35151765 15.95385682 -18.70621076 13.45141806 -24.6875 13 C-29.8045489 13.34691857 -32.84427238 14.80674253 -36.5625 18.3125 Z " fill="#FEFEFE" transform="translate(664.375,54.75)"/>
<path d="M0 0 C6.84692962 5.46842965 10.60682843 12.89561037 11.77896118 21.56506348 C11.92072254 24.9146555 11.91173443 28.2264958 11.8359375 31.578125 C11.82886276 32.7819281 11.82178802 33.9857312 11.8144989 35.22601318 C11.78677474 39.0263396 11.72407437 42.82512783 11.66015625 46.625 C11.63504514 49.22003063 11.61223695 51.81508462 11.59179688 54.41015625 C11.53701963 60.73235281 11.45089819 67.05341671 11.34765625 73.375 C3.75765625 73.375 -3.83234375 73.375 -11.65234375 73.375 C-11.70841797 68.39019531 -11.70841797 68.39019531 -11.765625 63.3046875 C-11.81186745 60.07773342 -11.86309133 56.85089409 -11.91479492 53.62402344 C-11.94800041 51.38548789 -11.97604591 49.14686951 -11.9987793 46.90820312 C-12.0324052 43.68583961 -12.08472647 40.46423226 -12.140625 37.2421875 C-12.14701492 36.24508759 -12.15340485 35.24798767 -12.1599884 34.22067261 C-12.27244533 28.87726647 -12.61776694 24.96986528 -15.65234375 20.375 C-19.96885457 16.47961219 -22.64842738 15.00118376 -28.5546875 15.09765625 C-32.06137889 15.56129701 -34.04160152 17.06783245 -36.65234375 19.375 C-39.52807727 24.13483479 -40.74686318 28.35968035 -40.85766602 33.86816406 C-40.87761124 34.74877502 -40.89755646 35.62938599 -40.91810608 36.53668213 C-40.94317482 37.94938385 -40.94317482 37.94938385 -40.96875 39.390625 C-40.9895311 40.36159119 -41.01031219 41.33255737 -41.03172302 42.33294678 C-41.09703237 45.43022685 -41.15601698 48.52759068 -41.21484375 51.625 C-41.25804667 53.72657111 -41.30166153 55.8281338 -41.34570312 57.9296875 C-41.45346881 63.07804045 -41.55268088 68.22645829 -41.65234375 73.375 C-49.24234375 73.375 -56.83234375 73.375 -64.65234375 73.375 C-64.65234375 47.965 -64.65234375 22.555 -64.65234375 -3.625 C-57.06234375 -3.625 -49.47234375 -3.625 -41.65234375 -3.625 C-41.32234375 -1.315 -40.99234375 0.995 -40.65234375 3.375 C-40.23984375 2.97667969 -39.82734375 2.57835937 -39.40234375 2.16796875 C-27.97543708 -8.31519786 -13.15606682 -8.06027069 0 0 Z " fill="#FEFEFE" transform="translate(579.65234375,53.625)"/>
<path d="M0 0 C7.23142096 5.15798698 10.77838317 12.83565251 12.25 21.4375 C12.50929374 25.49235332 12.48356239 29.532022 12.4453125 33.59375 C12.4424826 34.73662476 12.43965271 35.87949951 12.43673706 37.05700684 C12.42560025 40.68394732 12.40050741 44.31063496 12.375 47.9375 C12.36496181 50.40624642 12.35583743 52.87499673 12.34765625 55.34375 C12.32738937 61.37517425 12.28822746 67.40605625 12.25 73.4375 C4.66 73.4375 -2.93 73.4375 -10.75 73.4375 C-10.80607422 68.7040625 -10.80607422 68.7040625 -10.86328125 63.875 C-10.90956493 60.80022467 -10.96077375 57.72556777 -11.01245117 54.65087891 C-11.04559282 52.52302316 -11.07365787 50.39508177 -11.09643555 48.26708984 C-11.13017972 45.19852392 -11.18250568 42.13073518 -11.23828125 39.0625 C-11.24467117 38.11947021 -11.2510611 37.17644043 -11.25764465 36.20483398 C-11.38754164 30.2965201 -12.24052561 25.81392376 -14.75 20.4375 C-19.00883149 16.38641639 -21.80527986 15.1195575 -27.72265625 15.2265625 C-32.03736108 15.67549133 -34.16993197 17.77456511 -36.9375 20.9375 C-42.24072196 31.17820448 -41.1737705 43.86767675 -41.375 55.125 C-41.41326145 56.90561635 -41.45231765 58.68621581 -41.4921875 60.46679688 C-41.58875641 64.7902675 -41.66902007 69.11359817 -41.75 73.4375 C-49.01 73.4375 -56.27 73.4375 -63.75 73.4375 C-63.75 48.0275 -63.75 22.6175 -63.75 -3.5625 C-56.49 -3.5625 -49.23 -3.5625 -41.75 -3.5625 C-41.42 -0.9225 -41.09 1.7175 -40.75 4.4375 C-40.34910156 3.96699219 -39.94820312 3.49648438 -39.53515625 3.01171875 C-28.79215505 -8.75442542 -13.07294011 -7.72989591 0 0 Z " fill="#FEFEFE" transform="translate(268.75,53.5625)"/>
<path d="M0 0 C7.59 0 15.18 0 23 0 C23 8.25 23 16.5 23 25 C31.25 25 39.5 25 48 25 C48 31.6 48 38.2 48 45 C39.75 45 31.5 45 23 45 C23.09729283 49.16310881 23.20023778 53.32530343 23.31738281 57.48779297 C23.35550238 58.90177063 23.39038404 60.31583965 23.421875 61.72998047 C23.46789858 63.7708384 23.52582667 65.8110766 23.5859375 67.8515625 C23.6173584 69.07697754 23.6487793 70.30239258 23.68115234 71.56494141 C24.00173584 75.01870077 24.67539987 77.80023097 26 81 C29.28300585 82.70229933 33.38150835 82.19384777 37 82 C39.76142665 80.98263229 40.68085371 80.63829259 42 78 C45.866916 79.288972 47.06692555 81.166985 49.625 84.3125 C50.81996094 85.76076172 50.81996094 85.76076172 52.0390625 87.23828125 C53.7624874 89.6654952 54.60116305 91.10499384 55 94 C46.49910494 101.15742936 39.30705328 103.57541444 28.15234375 103.2890625 C19.65829454 102.51017819 12.7917064 99.11979422 6.875 92.9375 C-0.69956523 83.31311346 -0.51694157 72.46097369 -0.25 60.8125 C-0.22988817 59.2728099 -0.21164574 57.7330942 -0.1953125 56.19335938 C-0.15515879 52.4610719 -0.07682515 48.73242199 0 45 C-6.27 45 -12.54 45 -19 45 C-19 38.4 -19 31.8 -19 25 C-12.73 25 -6.46 25 0 25 C0 16.75 0 8.5 0 0 Z " fill="#FEFEFE" transform="translate(303,25)"/>
<path d="M0 0 C7.59 0 15.18 0 23 0 C23 8.25 23 16.5 23 25 C31.25 25 39.5 25 48 25 C48 31.6 48 38.2 48 45 C39.75 45 31.5 45 23 45 C23.08713 49.52174631 23.19405709 54.04155629 23.3125 58.5625 C23.34633789 60.47772461 23.34633789 60.47772461 23.38085938 62.43164062 C23.58207125 71.64184265 23.58207125 71.64184265 27 80 C30.6949327 82.46328846 33.71084582 82.69466527 38 82 C40.30596521 80.88342737 41.98002917 79.61597667 44 78 C51.63408072 85.05470852 51.63408072 85.05470852 52.53125 89.82421875 C52.50342605 92.2622928 52.36224474 94.59006621 52 97 C50.58671871 97.81837442 49.16921654 98.62946219 47.75 99.4375 C46.96109375 99.88996094 46.1721875 100.34242187 45.359375 100.80859375 C38.32729393 104.35956184 29.42010653 103.96932161 21.8828125 102.31640625 C12.97938433 99.34448632 7.64753403 94.84343878 3.04296875 86.734375 C-0.41972024 77.65616416 -0.24879801 68.47410698 -0.125 58.875 C-0.11494282 57.52344419 -0.10582184 56.17188107 -0.09765625 54.8203125 C-0.07427399 51.54679666 -0.03840986 48.27337401 0 45 C-6.27 45 -12.54 45 -19 45 C-19 38.4 -19 31.8 -19 25 C-12.73 25 -6.46 25 0 25 C0 16.75 0 8.5 0 0 Z " fill="#FEFEFE" transform="translate(701,25)"/>
<path d="M0 0 C-0.56810529 5.79859195 -1.73679735 10.97686594 -3.5625 16.5 C-3.91344727 17.59054688 -3.91344727 17.59054688 -4.27148438 18.703125 C-4.84132781 20.47080261 -5.41975404 22.23570969 -6 24 C-6.60585938 23.76023437 -7.21171875 23.52046875 -7.8359375 23.2734375 C-14.24308927 21.00629149 -19.64785807 20.08948681 -26 23 C-29.71648765 26.14887862 -32.45347405 29.36042215 -34 34 C-34.11322825 35.4264314 -34.17595476 36.8572249 -34.20532227 38.2878418 C-34.22526749 39.14850754 -34.24521271 40.00917328 -34.26576233 40.8959198 C-34.29083107 42.28355278 -34.29083107 42.28355278 -34.31640625 43.69921875 C-34.33718735 44.64940384 -34.35796844 45.59958893 -34.37937927 46.5785675 C-34.44478052 49.61480456 -34.50371604 52.65112831 -34.5625 55.6875 C-34.60569417 57.74545169 -34.64930876 59.80339459 -34.69335938 61.86132812 C-34.80124369 66.9074645 -34.90038737 71.95366639 -35 77 C-42.59 77 -50.18 77 -58 77 C-58 51.59 -58 26.18 -58 0 C-50.41 0 -42.82 0 -35 0 C-34.67 2.64 -34.34 5.28 -34 8 C-33.2265625 6.88625 -33.2265625 6.88625 -32.4375 5.75 C-24.22147927 -3.51935672 -11.116947 -4.04252618 0 0 Z " fill="#FEFEFE" transform="translate(424,50)"/>
<path d="M0 0 C14.19 0 28.38 0 43 0 C43 14.19 43 28.38 43 43 C28.81 43 14.62 43 0 43 C0 28.81 0 14.62 0 0 Z " fill="#1981E1" transform="translate(87,1)"/>
<path d="M0 0 C13.86 0 27.72 0 42 0 C42 14.19 42 28.38 42 43 C28.14 43 14.28 43 0 43 C0 28.81 0 14.62 0 0 Z " fill="#98E0F3" transform="translate(45,87)"/>
<path d="M0 0 C14.19 0 28.38 0 43 0 C43 13.86 43 27.72 43 42 C28.81 42 14.62 42 0 42 C0 28.14 0 14.28 0 0 Z " fill="#00B1E2" transform="translate(87,45)"/>
<path d="M0 0 C13.86 0 27.72 0 42 0 C42 14.19 42 28.38 42 43 C28.14 43 14.28 43 0 43 C0 28.81 0 14.62 0 0 Z " fill="#98E0F3" transform="translate(2,44)"/>
<path d="M0 0 C7.26 0 14.52 0 22 0 C22 25.08 22 50.16 22 76 C14.74 76 7.48 76 0 76 C0 57.85 0 39.7 0 21 C-2.31 21 -4.62 21 -7 21 C-6.36591429 16.30920682 -5.11470488 12.13263233 -3.5 7.6875 C-2.83484375 5.83705078 -2.83484375 5.83705078 -2.15625 3.94921875 C-1 1 -1 1 0 0 Z " fill="#FEFEFE" transform="translate(173,51)"/>
<path d="M0 0 C3.72655537 3.95240722 4.4647635 6.67551702 4.3203125 12.2265625 C3.77238814 16.39410842 1.2201945 19.55608792 -1.9375 22.1875 C-7.21973764 23.94824588 -11.31435861 23.98375804 -16.25 21.5625 C-19.34233097 18.8297424 -20.67474492 17.12432468 -21.9375 13.1875 C-22.13139902 8.61471475 -21.53936848 5.19777924 -19.1875 1.25 C-13.50563392 -3.95837724 -6.47272234 -3.9938074 0 0 Z " fill="#FEFEFE" transform="translate(192.9375,16.8125)"/>
</svg>
